<?xml version="1.0" encoding="iso-8859-1"?>
<!-- Generator: Adobe Illustrator 19.0.0, SVG Export Plug-In . SVG Version: 6.00 Build 0)  -->
<svg version="1.1" id="Capa_1" xmlns="http://www.w3.org/2000/svg" xmlns:xlink="http://www.w3.org/1999/xlink" x="0px" y="0px"
	 viewBox="0 0 464 464" style="enable-background:new 0 0 464 464;" xml:space="preserve">
<g>
	<rect x="408" y="432" style="fill:#D2504B;" width="16" height="32"/>
	<rect x="40" y="432" style="fill:#D2504B;" width="16" height="32"/>
	<path style="fill:#D2504B;" d="M57.649,199.959c-0.834,0.012-1.669,0.031-2.503,0.031c-0.011,0-0.022,0.01-0.033,0.01H56
		c0.468,0,1.02,0.042,1.626,0.12C57.634,200.066,57.642,200.013,57.649,199.959z"/>
	<path style="fill:#FFD7B4;" d="M197.299,25.617C125.173,35.398,65.631,85.451,42.061,152.278C45.478,153.188,48,156.295,48,160
		c0,2.315-0.985,6.597-2.557,10.149c0.141,0.131,0.277,0.267,0.408,0.408C49.403,168.985,53.685,168,56,168c4.418,0,8,3.582,8,8
		s-3.582,8-8,8c-2.315,0-6.597-0.985-10.149-2.557c-0.131,0.141-0.267,0.276-0.408,0.408C47.015,185.403,48,189.685,48,192
		c0,4.418-3.582,8-8,8c-3.559,0-6.571-2.325-7.61-5.538c-0.14,1.247-0.274,2.496-0.39,3.75c0,0.635,0.009,1.172,0.01,1.789H32v8
		c4.418,0,8,3.582,8,8c0,2.315-0.985,6.597-2.557,10.149c0.141,0.131,0.277,0.267,0.408,0.408C41.403,224.985,45.685,224,48,224
		c4.418,0,8,3.582,8,8s-3.582,8-8,8c-2.315,0-6.597-0.985-10.149-2.557c-0.131,0.141-0.267,0.276-0.408,0.408
		C39.015,241.403,40,245.685,40,248c0,4.418-3.582,8-8,8v176h8h16h32L58.18,215.802C57.351,215.93,56.607,216,56,216
		c-4.418,0-8-3.582-8-8s3.582-8,8-8h-0.887c0.011,0,0.022-0.01,0.033-0.01c0.834,0,1.669-0.019,2.503-0.031
		c2.647-0.039,5.292-0.138,7.936-0.297C64.59,196.764,64,193.792,64,192c0-4.418,3.582-8,8-8c4.418,0,8,3.582,8,8
		c0,1.526-0.428,3.909-1.17,6.373c67.619-9.108,131.161-56.059,153.17-118.072c-2.216-6.244-4.004-12.641-5.34-19.167
		C213.218,53.081,199.99,38.771,197.299,25.617z"/>
	<path style="fill:#FFD7B4;" d="M34.281,181.588c-0.098,0.539-0.19,1.08-0.284,1.621c0.177-0.46,0.364-0.915,0.56-1.358
		C34.464,181.765,34.37,181.679,34.281,181.588z"/>
	<path style="fill:#FFE6D2;" d="M424,248c0-2.315,0.985-6.597,2.557-10.149c-0.141-0.131-0.277-0.267-0.408-0.408
		C422.597,239.015,418.315,240,416,240c-4.418,0-8-3.582-8-8s3.582-8,8-8c2.315,0,6.597,0.985,10.149,2.557
		c0.131-0.141,0.267-0.276,0.408-0.408C424.985,222.597,424,218.315,424,216c0-4.418,3.582-8,8-8v-8h-0.01
		c0.001-0.616,0.01-1.154,0.01-1.789c-0.116-1.254-0.25-2.502-0.39-3.75c-1.039,3.213-4.051,5.538-7.61,5.538c-4.418,0-8-3.582-8-8
		c0-2.315,0.985-6.597,2.557-10.149c-0.141-0.131-0.277-0.267-0.408-0.408C414.597,183.015,410.315,184,408,184
		c-4.418,0-8-3.582-8-8s3.582-8,8-8c2.315,0,6.597,0.985,10.149,2.557c0.131-0.141,0.267-0.276,0.408-0.408
		C416.985,166.597,416,162.315,416,160c0-3.705,2.522-6.812,5.939-7.722C398.369,85.451,338.827,35.398,266.701,25.617
		C263.653,40.517,247.084,56.909,232,64c-1.768-0.831-3.555-1.796-5.34-2.866c1.336,6.525,3.124,12.923,5.34,19.167
		c22.009,62.013,85.551,108.964,153.17,118.072c-0.742-2.464-1.17-4.846-1.17-6.373c0-4.418,3.582-8,8-8c4.418,0,8,3.582,8,8
		c0,1.792-0.59,4.764-1.585,7.662c2.644,0.159,5.29,0.258,7.936,0.297c0.834,0.012,1.669,0.031,2.503,0.031
		c0.011,0,0.022,0.01,0.033,0.01H408c4.418,0,8,3.582,8,8s-3.582,8-8,8c-0.607,0-1.351-0.07-2.18-0.198L376,432h32h16h8V256
		C427.582,256,424,252.418,424,248z"/>
	<path style="fill:#FFE6D2;" d="M429.443,181.851c0.196,0.443,0.383,0.897,0.56,1.358c-0.094-0.541-0.186-1.082-0.284-1.621
		C429.63,181.679,429.536,181.765,429.443,181.851z"/>
	<path style="fill:#D2504B;" d="M397.443,202.149c0.355-0.802,0.681-1.641,0.972-2.487c0.996-2.898,1.585-5.87,1.585-7.662
		c0-4.418-3.582-8-8-8c-4.418,0-8,3.582-8,8c0,1.526,0.428,3.909,1.17,6.373c0.383,1.273,0.851,2.566,1.387,3.776
		c1.428-1.33,3.338-2.149,5.443-2.149S396.015,200.819,397.443,202.149z"/>
	<path style="fill:#D2504B;" d="M386.557,213.851C384.985,217.403,384,221.685,384,224c0,4.418,3.582,8,8,8c4.418,0,8-3.582,8-8
		c0-2.315-0.985-6.597-2.557-10.149c-1.428,1.33-3.338,2.149-5.443,2.149S387.985,215.181,386.557,213.851z"/>
	<path style="fill:#D2504B;" d="M408,216c4.418,0,8-3.582,8-8s-3.582-8-8-8h0.887c-0.011,0-0.022-0.01-0.033-0.01
		c-0.834,0-1.669-0.019-2.503-0.031c0.007,0.054,0.015,0.107,0.022,0.161c-2.394,0.304-5.688,1.183-8.522,2.437
		C399.18,203.985,400,205.895,400,208s-0.82,4.015-2.149,5.443c2.622,1.16,5.636,1.999,7.969,2.359
		C406.649,215.93,407.393,216,408,216z"/>
	<path style="fill:#D2504B;" d="M386.149,202.557C382.597,200.985,378.315,200,376,200c-4.418,0-8,3.582-8,8s3.582,8,8,8
		c2.315,0,6.597-0.985,10.149-2.557C384.82,212.015,384,210.105,384,208S384.82,203.985,386.149,202.557z"/>
	<path style="fill:#BE3C3C;" d="M397.851,202.557c-0.131-0.141-0.267-0.276-0.408-0.408c-1.428-1.33-3.338-2.149-5.443-2.149
		s-4.015,0.819-5.443,2.149c-0.141,0.131-0.277,0.267-0.408,0.408C384.82,203.985,384,205.895,384,208s0.82,4.015,2.149,5.443
		c0.131,0.141,0.267,0.276,0.408,0.408c1.428,1.33,3.338,2.149,5.443,2.149s4.015-0.819,5.443-2.149
		c0.141-0.131,0.277-0.267,0.408-0.408C399.18,212.015,400,210.105,400,208S399.18,203.985,397.851,202.557z"/>
	<path style="fill:#D2504B;" d="M416,160c0,2.315,0.985,6.597,2.557,10.149c1.428-1.33,3.338-2.149,5.443-2.149
		s4.015,0.819,5.443,2.149C431.015,166.597,432,162.315,432,160c0-4.418-3.582-8-8-8c-0.714,0-1.402,0.103-2.061,0.278
		C418.522,153.188,416,156.295,416,160z"/>
	<path style="fill:#D2504B;" d="M424,184c-2.105,0-4.015-0.819-5.443-2.149C416.985,185.403,416,189.685,416,192
		c0,4.418,3.582,8,8,8c3.559,0,6.571-2.325,7.61-5.538c0.251-0.776,0.39-1.602,0.39-2.462c0-2.026-0.755-5.559-1.997-8.791
		c-0.177-0.46-0.364-0.915-0.56-1.358C428.015,183.181,426.105,184,424,184z"/>
	<path style="fill:#D2504B;" d="M429.851,181.443C433.403,183.015,437.685,184,440,184c4.418,0,8-3.582,8-8s-3.582-8-8-8
		c-2.315,0-6.597,0.985-10.149,2.557C431.18,171.985,432,173.895,432,176S431.18,180.015,429.851,181.443z"/>
	<path style="fill:#D2504B;" d="M418.149,170.557C414.597,168.985,410.315,168,408,168c-4.418,0-8,3.582-8,8s3.582,8,8,8
		c2.315,0,6.597-0.985,10.149-2.557C416.82,180.015,416,178.105,416,176S416.82,171.985,418.149,170.557z"/>
	<path style="fill:#BE3C3C;" d="M424,168c-2.105,0-4.015,0.819-5.443,2.149c-0.141,0.131-0.277,0.267-0.408,0.408
		C416.82,171.985,416,173.895,416,176s0.82,4.015,2.149,5.443c0.131,0.141,0.267,0.276,0.408,0.408
		c1.428,1.33,3.338,2.149,5.443,2.149s4.015-0.819,5.443-2.149c0.093-0.086,0.187-0.172,0.276-0.263
		c0.046-0.047,0.088-0.097,0.132-0.145C431.18,180.015,432,178.105,432,176s-0.82-4.015-2.149-5.443
		c-0.131-0.141-0.267-0.276-0.408-0.408C428.015,168.819,426.105,168,424,168z"/>
	<path style="fill:#D2504B;" d="M424,216c0,2.315,0.985,6.597,2.557,10.149c1.428-1.33,3.338-2.149,5.443-2.149
		s4.015,0.819,5.443,2.149C439.015,222.597,440,218.315,440,216c0-4.418-3.582-8-8-8C427.582,208,424,211.582,424,216z"/>
	<path style="fill:#D2504B;" d="M426.557,237.851C424.985,241.403,424,245.685,424,248c0,4.418,3.582,8,8,8c4.418,0,8-3.582,8-8
		c0-2.315-0.985-6.597-2.557-10.149c-1.428,1.33-3.338,2.149-5.443,2.149S427.985,239.181,426.557,237.851z"/>
	<path style="fill:#D2504B;" d="M448,224c-2.315,0-6.597,0.985-10.149,2.557C439.18,227.985,440,229.895,440,232
		s-0.82,4.015-2.149,5.443C441.403,239.015,445.685,240,448,240c4.418,0,8-3.582,8-8S452.418,224,448,224z"/>
	<path style="fill:#D2504B;" d="M416,224c-4.418,0-8,3.582-8,8s3.582,8,8,8c2.315,0,6.597-0.985,10.149-2.557
		C424.82,236.015,424,234.105,424,232s0.82-4.015,2.149-5.443C422.597,224.985,418.315,224,416,224z"/>
	<path style="fill:#BE3C3C;" d="M437.851,226.557c-0.131-0.141-0.267-0.276-0.408-0.408c-1.428-1.33-3.338-2.149-5.443-2.149
		s-4.015,0.819-5.443,2.149c-0.141,0.131-0.277,0.267-0.408,0.408C424.82,227.985,424,229.895,424,232s0.82,4.015,2.149,5.443
		c0.131,0.141,0.267,0.276,0.408,0.408c1.428,1.33,3.338,2.149,5.443,2.149s4.015-0.819,5.443-2.149
		c0.141-0.131,0.277-0.267,0.408-0.408C439.18,236.015,440,234.105,440,232S439.18,227.985,437.851,226.557z"/>
	<path style="fill:#D2504B;" d="M226.66,61.134c1.784,1.069,3.572,2.035,5.34,2.866c15.084-7.091,31.653-23.483,34.701-38.383
		c0.324-1.585,0.499-3.155,0.499-4.694C267.2,9.368,257.962,0,246.566,0C240.88,0,235.732,2.333,232,6.105
		C228.268,2.333,223.12,0,217.435,0C206.038,0,196.8,9.368,196.8,20.923c0,1.539,0.175,3.108,0.499,4.694
		C199.99,38.771,213.218,53.081,226.66,61.134z"/>
	<path style="fill:#F5C873;" d="M296,328H168c-4.418,0-8,3.582-8,8s3.582,8,8,8h32h16h32h16h32c4.418,0,8-3.582,8-8
		S300.418,328,296,328z"/>
	<path style="fill:#E6B464;" d="M232,360c-8.824,0-16-7.18-16-16h-16c0,14.886,10.214,27.427,24,30.987v58.025
		c-13.786,3.561-24,16.101-24,30.987h16c0-8.82,7.176-16,16-16s16,7.18,16,16h16c0-14.886-10.214-27.427-24-30.987v-58.025
		c13.786-3.561,24-16.101,24-30.987h-16C248,352.82,240.824,360,232,360z"/>
	<path style="fill:#BE3C3C;" d="M37.443,226.149C39.015,222.597,40,218.315,40,216c0-4.418-3.582-8-8-8c-4.418,0-8,3.582-8,8
		c0,2.315,0.985,6.597,2.557,10.149C27.985,224.819,29.895,224,32,224S36.015,224.819,37.443,226.149z"/>
	<path style="fill:#BE3C3C;" d="M40,248c0-2.315-0.985-6.597-2.557-10.149C36.015,239.181,34.105,240,32,240
		s-4.015-0.819-5.443-2.149C24.985,241.403,24,245.685,24,248c0,4.418,3.582,8,8,8C36.418,256,40,252.418,40,248z"/>
	<path style="fill:#BE3C3C;" d="M26.149,226.557C22.597,224.985,18.315,224,16,224c-4.418,0-8,3.582-8,8s3.582,8,8,8
		c2.315,0,6.597-0.985,10.149-2.557C24.82,236.015,24,234.105,24,232S24.82,227.985,26.149,226.557z"/>
	<path style="fill:#BE3C3C;" d="M37.851,237.443C41.403,239.015,45.685,240,48,240c4.418,0,8-3.582,8-8s-3.582-8-8-8
		c-2.315,0-6.597,0.985-10.149,2.557C39.18,227.985,40,229.895,40,232S39.18,236.015,37.851,237.443z"/>
	<path style="fill:#823C41;" d="M37.443,237.851c0.141-0.131,0.277-0.267,0.408-0.408C39.18,236.015,40,234.105,40,232
		s-0.82-4.015-2.149-5.443c-0.131-0.141-0.267-0.276-0.408-0.408C36.015,224.819,34.105,224,32,224s-4.015,0.819-5.443,2.149
		c-0.141,0.131-0.277,0.267-0.408,0.408C24.82,227.985,24,229.895,24,232s0.82,4.015,2.149,5.443
		c0.131,0.141,0.267,0.276,0.408,0.408C27.985,239.181,29.895,240,32,240S36.015,239.181,37.443,237.851z"/>
	<path style="fill:#BE3C3C;" d="M40,168c2.105,0,4.015,0.819,5.443,2.149C47.015,166.597,48,162.315,48,160
		c0-3.705-2.522-6.812-5.939-7.722C41.402,152.103,40.714,152,40,152c-4.418,0-8,3.582-8,8c0,2.315,0.985,6.597,2.557,10.149
		C35.985,168.819,37.895,168,40,168z"/>
	<path style="fill:#BE3C3C;" d="M40,200c4.418,0,8-3.582,8-8c0-2.315-0.985-6.597-2.557-10.149C44.015,183.181,42.105,184,40,184
		s-4.015-0.819-5.443-2.149c-0.196,0.443-0.383,0.897-0.56,1.358C32.755,186.441,32,189.974,32,192c0,0.86,0.139,1.686,0.39,2.462
		C33.429,197.675,36.441,200,40,200z"/>
	<path style="fill:#BE3C3C;" d="M34.149,170.557C30.597,168.985,26.315,168,24,168c-4.418,0-8,3.582-8,8s3.582,8,8,8
		c2.315,0,6.597-0.985,10.149-2.557C32.82,180.015,32,178.105,32,176S32.82,171.985,34.149,170.557z"/>
	<path style="fill:#BE3C3C;" d="M48,176c0,2.105-0.82,4.015-2.149,5.443C49.403,183.015,53.685,184,56,184c4.418,0,8-3.582,8-8
		s-3.582-8-8-8c-2.315,0-6.597,0.985-10.149,2.557C47.18,171.985,48,173.895,48,176z"/>
	<path style="fill:#823C41;" d="M34.557,181.851C35.985,183.181,37.895,184,40,184s4.015-0.819,5.443-2.149
		c0.141-0.131,0.277-0.267,0.408-0.408C47.18,180.015,48,178.105,48,176s-0.82-4.015-2.149-5.443
		c-0.131-0.141-0.267-0.276-0.408-0.408C44.015,168.819,42.105,168,40,168s-4.015,0.819-5.443,2.149
		c-0.141,0.131-0.277,0.267-0.408,0.408C32.82,171.985,32,173.895,32,176s0.82,4.015,2.149,5.443
		c0.045,0.048,0.086,0.098,0.132,0.145C34.37,181.679,34.464,181.765,34.557,181.851z"/>
	<path style="fill:#BE3C3C;" d="M72,184c-4.418,0-8,3.582-8,8c0,1.792,0.59,4.764,1.585,7.662c0.291,0.846,0.617,1.685,0.972,2.487
		C67.985,200.819,69.895,200,72,200s4.015,0.819,5.443,2.149c0.536-1.21,1.004-2.503,1.387-3.776C79.572,195.909,80,193.526,80,192
		C80,187.582,76.418,184,72,184z"/>
	<path style="fill:#BE3C3C;" d="M66.557,213.851C64.985,217.403,64,221.685,64,224c0,4.418,3.582,8,8,8c4.418,0,8-3.582,8-8
		c0-2.315-0.985-6.597-2.557-10.149C76.015,215.181,74.105,216,72,216S67.985,215.181,66.557,213.851z"/>
	<path style="fill:#BE3C3C;" d="M66.149,202.557c-2.834-1.254-6.128-2.133-8.522-2.437C57.02,200.042,56.468,200,56,200
		c-4.418,0-8,3.582-8,8s3.582,8,8,8c0.607,0,1.351-0.07,2.18-0.198c2.333-0.36,5.348-1.199,7.969-2.359
		C64.82,212.015,64,210.105,64,208S64.82,203.985,66.149,202.557z"/>
	<path style="fill:#BE3C3C;" d="M77.851,213.443C81.403,215.015,85.685,216,88,216c4.418,0,8-3.582,8-8s-3.582-8-8-8
		c-2.315,0-6.597,0.985-10.149,2.557C79.18,203.985,80,205.895,80,208S79.18,212.015,77.851,213.443z"/>
	<path style="fill:#823C41;" d="M66.557,202.149c-0.141,0.131-0.277,0.267-0.408,0.408C64.82,203.985,64,205.895,64,208
		s0.82,4.015,2.149,5.443c0.131,0.141,0.267,0.276,0.408,0.408C67.985,215.181,69.895,216,72,216s4.015-0.819,5.443-2.149
		c0.141-0.131,0.277-0.267,0.408-0.408C79.18,212.015,80,210.105,80,208s-0.82-4.015-2.149-5.443
		c-0.131-0.141-0.267-0.276-0.408-0.408C76.015,200.819,74.105,200,72,200S67.985,200.819,66.557,202.149z"/>
</g>
<g>
</g>
<g>
</g>
<g>
</g>
<g>
</g>
<g>
</g>
<g>
</g>
<g>
</g>
<g>
</g>
<g>
</g>
<g>
</g>
<g>
</g>
<g>
</g>
<g>
</g>
<g>
</g>
<g>
</g>
</svg>
