<?xml version="1.0" encoding="iso-8859-1"?>
<!-- Generator: Adobe Illustrator 19.0.0, SVG Export Plug-In . SVG Version: 6.00 Build 0)  -->
<svg version="1.1" id="Layer_1" xmlns="http://www.w3.org/2000/svg" xmlns:xlink="http://www.w3.org/1999/xlink" x="0px" y="0px"
	 viewBox="0 0 503.467 503.467" style="enable-background:new 0 0 503.467 503.467;" xml:space="preserve">
<g transform="translate(1 1)">
	<path style="fill:#F2EDDA;" d="M344.17,157.72c0.853,5.12,0.853,11.093,0.853,16.213c0,5.973,0,11.947-0.853,17.92
		c-8.533,79.36-71.68,143.36-151.04,151.893l0,0c-0.853-5.12-0.853-11.093-0.853-16.213c0-5.973,0.853-12.8,0.853-18.773h0.853
		c60.587-8.533,108.373-56.32,116.907-116.907c0.853-5.973,0.853-11.947,0.853-17.92c0-5.12,0-11.093-0.853-16.213
		c-3.413-26.453-13.653-49.493-29.013-69.12h40.96C333.93,109.08,341.61,132.973,344.17,157.72z M157.29,327.533
		c0,5.12,0,11.093,0.853,16.213h-0.853C71.103,335.213,3.69,262.68,3.69,173.933c0-93.867,76.8-170.667,170.667-170.667
		c30.72,0,60.587,8.533,85.333,23.04v40.96C236.65,48.493,206.783,37.4,174.356,37.4c-75.093,0-136.533,61.44-136.533,136.533
		c0,69.973,52.053,127.147,119.467,135.68h0.853C157.29,315.587,157.29,321.56,157.29,327.533z"/>
	<polygon style="fill:#FF7474;" points="321.983,88.6 281.023,88.6 259.69,88.6 259.69,67.267 259.69,26.307 259.69,3.267 
		293.823,3.267 345.023,54.467 345.023,88.6 	"/>
	<path style="fill:#F2EDDA;" d="M345.023,173.933c0-5.12,0-11.093-0.853-16.213l0,0c86.187,8.533,154.453,81.067,154.453,169.813
		c0,93.867-76.8,170.667-170.667,170.667c-88.747,0-162.133-67.413-169.813-154.453c-0.853-5.12-0.853-11.093-0.853-16.213
		c0-5.973,0-11.947,0.853-17.92c8.533-80.213,71.68-143.36,151.893-151.893l0,0c0.853,5.12,0.853,10.24,0.853,16.213
		c0,5.973-0.853,11.947-0.853,17.92l0,0c-61.44,7.68-108.373,56.32-116.907,116.907c-0.853,5.973-0.853,11.947-0.853,18.773
		c0,5.12,0,11.093,0.853,16.213c7.68,67.413,65.707,120.32,135.68,120.32c75.093,0,136.533-61.44,136.533-136.533
		c0-69.973-52.053-128-120.32-135.68l0,0C345.023,185.88,345.023,179.907,345.023,173.933"/>
</g>
<path style="fill:#51565F;" d="M328.956,503.467c-96.427,0-174.933-78.507-174.933-174.933c0-88.747,64.853-162.133,151.893-173.227
	c-1.707-10.24-4.267-20.48-8.533-29.867c-0.853-2.56,0-4.267,2.56-5.973c2.56-0.853,4.267,0,5.973,2.56
	c6.827,17.067,10.24,34.987,10.24,52.907c0,58.027-34.987,109.227-87.893,130.56c-2.56,0.853-4.267,0-5.973-2.56
	c-1.707-2.56,0-4.267,2.56-5.973c42.667-17.067,72.533-55.467,81.067-99.84c-62.293,11.093-109.227,65.707-109.227,130.56
	c0,72.533,59.733,132.267,132.267,132.267s132.267-59.733,132.267-132.267c0-65.707-47.787-122.027-112.64-130.56
	c-8.533,67.413-55.467,123.733-121.173,144.213c-2.56,0.853-4.267-0.853-5.12-2.56c-0.853-2.56,0.853-4.267,2.56-5.12
	c69.973-22.187,116.907-85.333,116.907-158.72c0-17.067-2.56-33.28-7.68-49.493c-0.853-2.56,0.853-4.267,2.56-5.12
	c2.56-0.853,4.267,0.853,5.12,2.56c3.413,10.24,5.12,21.333,6.827,32.427c88.747,10.24,154.453,84.48,154.453,174.08
	C503.89,424.96,425.383,503.467,328.956,503.467z M306.77,163.84c-82.773,10.24-144.213,80.213-144.213,164.693
	c0,92.16,74.24,166.4,166.4,166.4s166.4-74.24,166.4-166.4c0-84.48-62.293-154.453-145.067-164.693c0,3.413,0,7.68,0,11.093
	c0,5.12,0,9.387-0.853,14.507c69.12,9.387,120.32,69.12,120.32,139.093c0,77.653-63.147,140.8-140.8,140.8
	s-140.8-63.147-140.8-140.8c0-69.973,51.2-128.853,118.613-139.093c0.853-5.12,0.853-9.387,0.853-14.507
	C307.623,171.52,307.623,167.253,306.77,163.84z M124.156,342.187h-0.853c-73.387-23.04-122.88-90.453-122.88-167.253
	C0.423,78.507,78.93,0,175.356,0c17.92,0,35.84,2.56,52.907,7.68c2.56,0.853,3.413,3.413,2.56,5.12
	c-0.853,2.56-3.413,3.413-5.12,2.56c-16.213-5.12-33.28-7.68-50.347-7.68c-92.16,0-166.4,74.24-166.4,166.4
	c0,73.387,46.933,136.533,116.907,158.72c2.56,0.853,3.413,3.413,2.56,5.12C127.57,340.48,125.863,342.187,124.156,342.187z
	 M124.156,305.493c-0.853,0-0.853,0-1.707,0c-53.76-21.333-87.893-72.533-87.893-130.56c0-77.653,63.147-140.8,140.8-140.8
	c17.92,0,35.84,3.413,52.907,10.24c2.56,0.853,3.413,3.413,2.56,5.973c-0.853,2.56-3.413,3.413-5.973,2.56
	c-16.213-6.827-32.427-9.387-49.493-9.387c-72.533,0-132.267,59.733-132.267,132.267c0,53.76,32.427,102.4,82.773,122.88
	c2.56,0.853,3.413,3.413,2.56,5.973C127.57,304.64,125.863,305.493,124.156,305.493z M346.023,93.867H260.69
	c-2.56,0-4.267-1.707-4.267-4.267V4.267c0-2.56,1.707-4.267,4.267-4.267h34.133c0.853,0,2.56,0.853,3.413,0.853l51.2,51.2
	c0.853,0.853,0.853,1.707,0.853,3.413V89.6C350.29,92.16,348.583,93.867,346.023,93.867z M264.956,85.333h76.8v-28.16l-48.64-48.64
	h-28.16V85.333z M311.89,68.267c-0.853,0-2.56,0-3.413-0.853l-25.6-25.6c-0.853-0.853-0.853-1.707-0.853-3.413
	c0-1.707,0-2.56,0.853-3.413c1.707-1.707,4.267-1.707,5.973,0l25.6,25.6c0.853,0.853,0.853,1.707,0.853,3.413
	c0,1.707,0,2.56-0.853,3.413S312.743,68.267,311.89,68.267z"/>
<g>
</g>
<g>
</g>
<g>
</g>
<g>
</g>
<g>
</g>
<g>
</g>
<g>
</g>
<g>
</g>
<g>
</g>
<g>
</g>
<g>
</g>
<g>
</g>
<g>
</g>
<g>
</g>
<g>
</g>
</svg>
