<?xml version="1.0" encoding="iso-8859-1"?>
<!-- Generator: Adobe Illustrator 19.0.0, SVG Export Plug-In . SVG Version: 6.00 Build 0)  -->
<svg version="1.1" id="Layer_1" xmlns="http://www.w3.org/2000/svg" xmlns:xlink="http://www.w3.org/1999/xlink" x="0px" y="0px"
	 viewBox="0 0 512 512" style="enable-background:new 0 0 512 512;" xml:space="preserve">
<path style="fill:#85C9FF;" d="M474.634,50.824V434.03c0,42.998-34.973,77.97-77.97,77.97H115.336
	c-42.998,0-77.97-34.973-77.97-77.97V50.824H474.634z"/>
<path style="fill:#00A6FF;" d="M474.634,50.824V434.03c0,42.998-34.973,77.97-77.97,77.97H254.966V50.824H474.634z"/>
<rect x="37.366" y="50.824" style="fill:#DFCCBE;" width="437.269" height="128.554"/>
<rect x="254.966" y="50.824" style="fill:#BD9B7B;" width="219.669" height="128.554"/>
<path style="fill:#FF738E;" d="M331.734,310.439c-1.609,26.843-18.338,43.321-36.906,60.583
	c-12.737,11.849-25.652,23.552-38.828,34.92c-0.345-0.313-0.69-0.637-1.034-0.951c-7.764-7.126-15.527-14.242-23.291-21.368
	c-14.137-12.967-28.244-25.851-40.469-42.172c-11.212-14.984-14.273-35.224-7.44-53.112c11.954-31.295,56.675-30.835,71.199-1.766
	c0.387,0.763,0.752,1.536,1.087,2.341c0,0,17.189-33.98,52.642-20.177C326.123,275.529,332.8,292.78,331.734,310.439z"/>
<path style="fill:#FF3C62;" d="M331.734,310.439c-1.609,26.843-18.338,43.321-36.906,60.583
	c-12.737,11.849-25.652,23.552-38.828,34.92c-0.345-0.313-0.69-0.637-1.034-0.951V286.574c0.387,0.763,0.752,1.536,1.087,2.341
	c0,0,17.189-33.98,52.642-20.177C326.123,275.529,332.8,292.78,331.734,310.439z"/>
<g>
	<rect x="105.012" style="fill:#867B6E;" width="31.347" height="109.369"/>
	<rect x="172.366" style="fill:#867B6E;" width="31.347" height="109.369"/>
	<rect x="239.72" style="fill:#867B6E;" width="31.347" height="109.369"/>
</g>
<g>
	<rect x="254.955" style="fill:#766957;" width="16.104" height="109.369"/>
	<rect x="307.064" style="fill:#766957;" width="31.347" height="109.369"/>
	<rect x="374.418" style="fill:#766957;" width="31.347" height="109.369"/>
</g>
<g>
</g>
<g>
</g>
<g>
</g>
<g>
</g>
<g>
</g>
<g>
</g>
<g>
</g>
<g>
</g>
<g>
</g>
<g>
</g>
<g>
</g>
<g>
</g>
<g>
</g>
<g>
</g>
<g>
</g>
</svg>
